<?xml version="1.0" encoding="UTF-8"?>
<svg id="Layer_1" data-name="Layer 1" xmlns="http://www.w3.org/2000/svg" viewBox="0 0 338.37 179.66">
  <defs>
    <style>
      .cls-1, .cls-2 {
        fill: #47a8df;
      }

      .cls-1, .cls-3, .cls-4, .cls-5 {
        stroke-width: 0px;
      }

      .cls-2, .cls-6, .cls-7 {
        font-family: Poppins-SemiBold, Poppins;
        font-weight: 600;
      }

      .cls-2, .cls-7 {
        font-size: 43.84px;
      }

      .cls-3 {
        fill: #608dc9;
      }

      .cls-4 {
        fill: #27aae1;
      }

      .cls-6 {
        fill: #122644;
        font-size: 15.34px;
      }

      .cls-7, .cls-5 {
        fill: #293690;
      }
    </style>
  </defs>
  <text class="cls-7" transform="translate(122.93 106.55)"><tspan x="0" y="0">inancial</tspan></text>
  <text class="cls-2" transform="translate(102.15 142.89) scale(.99 1)"><tspan x="0" y="0">onsultants</tspan></text>
  <polygon class="cls-3" points="187.16 49.66 187.16 72.64 196.85 72.64 196.85 37.27 187.16 49.66"/>
  <polygon class="cls-3" points="172.63 68.26 172.63 72.64 182.32 72.64 182.32 55.86 172.63 68.26"/>
  <polygon class="cls-3" points="216.22 21.48 216.22 72.64 225.9 72.64 225.9 9.08 216.22 21.48"/>
  <polyline class="cls-4" points="220.25 0 200.74 24.98 196.92 22 157.35 72.64 163.5 72.64 197.76 28.8 201.57 31.78 226.4 0"/>
  <polygon class="cls-3" points="201.69 36.26 201.69 72.64 211.37 72.64 211.37 43.83 201.69 36.26"/>
  <g>
    <polygon class="cls-5" points="90.63 104.34 104.46 104.34 121.47 82.57 90.63 82.57 90.63 104.34"/>
    <g>
      <polygon class="cls-5" points="68.75 107.88 68.75 150.04 90.39 150.06 90.61 107.88 68.75 107.88"/>
      <polygon class="cls-5" points="68.75 42.08 68.75 78.6 90.63 78.6 90.63 64.05 135.94 64.05 153.1 42.08 68.75 42.08"/>
    </g>
  </g>
  <text class="cls-6" transform="translate(95.33 170.56)"><tspan x="0" y="0">TOGETHER TOWARDS SUCCESS</tspan></text>
  <polyline class="cls-1" points="0 119.83 54.89 119.83 54.89 127.14 0 127.14"/>
  <rect class="cls-1" x="7.32" y="130.8" width="51.23" height="7.32"/>
  <path class="cls-1" d="M90.41,176.16v-22.04h-19.24c-13.49-.25-24.36-11.25-24.36-24.8s10.87-24.55,24.36-24.79h0s33.19-.01,33.19-.01l17.19-22h-49.94c-25.85,0-46.8,20.95-46.8,46.8s20.95,46.8,46.8,46.8v.05h18.8Z"/>
</svg>